<svg xmlns="http://www.w3.org/2000/svg" viewBox="0 0 434.33 36.42"><defs><style>.cls-1{fill:#43c160;}.cls-2{fill:#696969;}</style></defs><title>FIBRACLICK wiki</title><g id="Layer_2" data-name="Layer 2"><g id="Layer_1-2" data-name="Layer 1"><polygon class="cls-1" points="16.92 1.86 7.05 18.75 16.92 17.9 3.05 36.27 8.22 22.3 0 23.32 3.14 1.86 16.92 1.86"/><path class="cls-2" d="M66,2l0,7.14H49.29v7.63H64.64V23.9H49.29V36.27H40.35V2Z"/><path class="cls-2" d="M79,2V36.27H70V2Z"/><path class="cls-2" d="M114.62,10.66a7.6,7.6,0,0,1-5.91,7.43,8.46,8.46,0,0,1,7,8.65c0,5.86-5.13,9.53-13.2,9.53H85.63V2h16.28C109.68,2,114.62,5.38,114.62,10.66Zm-9.19,1.56c0-2.05-1.51-3.27-4-3.23H94.58v6.65h6.84C103.92,15.64,105.43,14.37,105.43,12.22Zm1.07,13.39c0-2.15-2-3.52-5.08-3.47H94.58v7.19h6.84C104.55,29.33,106.5,28,106.5,25.61Z"/><path class="cls-2" d="M141.23,36.27l-5-9.48H129.6v9.48h-8.95V2h15.4c9.09,0,14.27,4.4,14.27,12,0,5.18-2.15,9-6.11,11l7.14,11.19ZM129.6,19.65h6.5c3.61,0,5.71-1.86,5.71-5.33s-2.1-5.18-5.71-5.18h-6.5Z"/><path class="cls-2" d="M178.88,30.21H164.07l-2.39,6.06h-9.19L167.2,2h9.19l14.37,34.27h-9.53Zm-2.64-6.85-4.69-12.22-4.79,12.22Z"/><path class="cls-2" d="M210.38,5.52a13.71,13.71,0,0,0-13.93,13.59,13.77,13.77,0,0,0,13.93,13.64,14.86,14.86,0,0,0,10.12-4.11l2.4,2.6a18.83,18.83,0,0,1-12.71,5.18,17.37,17.37,0,0,1-17.7-17.31C192.49,9.53,200.41,2,210.34,2a18.5,18.5,0,0,1,12.51,5L220.5,9.78A14.53,14.53,0,0,0,210.38,5.52Z"/><path class="cls-2" d="M233.87,2.05v30.6h15v3.62H230V2.05Z"/><path class="cls-2" d="M259.15,2.05V36.27h-3.91V2.05Z"/><path class="cls-2" d="M284.18,5.52a13.71,13.71,0,0,0-13.93,13.59,13.77,13.77,0,0,0,13.93,13.64,14.86,14.86,0,0,0,10.12-4.11l2.4,2.6A18.83,18.83,0,0,1,284,36.42a17.37,17.37,0,0,1-17.7-17.31C266.29,9.53,274.21,2,284.14,2a18.5,18.5,0,0,1,12.51,5L294.3,9.78A14.53,14.53,0,0,0,284.18,5.52Z"/><path class="cls-2" d="M326.92,36.27,314.31,20l-6.64,7.33v9h-3.91V2.05h3.91V22l18.38-19.9h4.64L317.1,17l14.62,19.31Z"/><path class="cls-1" d="M346.2,10.56l7.63,21.85,7.48-21.85h4l7.57,21.85,7.53-21.85h4l-9.53,25.71h-4L363.31,15.2l-7.53,21.07h-4l-9.63-25.71Z"/><path class="cls-1" d="M393.25,3.18a2.5,2.5,0,1,1-5,0,2.5,2.5,0,1,1,5,0Zm-.59,7.38V36.27h-3.77V10.56Z"/><path class="cls-1" d="M411.44,23.22,406,28.84v7.43H402.2V0H406V23.9l13.25-13.34h4.5l-9.63,9.92,10.65,15.79h-4.54Z"/><path class="cls-1" d="M434.33,3.18a2.5,2.5,0,1,1-5,0,2.5,2.5,0,1,1,5,0Zm-.59,7.38V36.27H430V10.56Z"/></g></g></svg>