<?xml version="1.0" standalone="no"?>
<!DOCTYPE svg PUBLIC "-//W3C//DTD SVG 20010904//EN"
 "http://www.w3.org/TR/2001/REC-SVG-20010904/DTD/svg10.dtd">
<svg version="1.0" xmlns="http://www.w3.org/2000/svg"
 width="2048.000000pt" height="2048.000000pt" viewBox="0 0 2048.000000 2048.000000"
 preserveAspectRatio="xMidYMid meet">
<metadata>
Created by potrace 1.11, written by Peter Selinger 2001-2013
</metadata>
<g transform="translate(0.000000,2048.000000) scale(0.100000,-0.100000)"
fill="#000000" stroke="none">
<path d="M7120 20330 c-9 -5 -14 -28 -25 -102 -3 -21 -8 -55 -11 -75 -6 -42
-8 -55 -19 -128 -4 -27 -9 -62 -11 -76 -2 -15 -6 -47 -9 -70 -3 -24 -10 -69
-15 -99 -6 -30 -12 -77 -15 -105 -3 -27 -8 -57 -10 -65 -2 -8 -7 -42 -11 -75
-3 -33 -8 -62 -9 -65 -2 -3 -6 -30 -10 -60 -3 -30 -10 -80 -15 -110 -5 -30
-12 -73 -15 -95 -2 -22 -7 -53 -10 -70 -11 -66 -15 -92 -20 -135 -3 -25 -7
-56 -10 -70 -2 -14 -7 -45 -10 -70 -4 -25 -8 -56 -10 -70 -2 -14 -11 -74 -20
-135 -9 -60 -18 -121 -20 -135 -2 -14 -7 -45 -10 -70 -4 -25 -8 -61 -11 -80
-3 -19 -9 -60 -14 -90 -6 -30 -12 -75 -15 -100 -3 -25 -10 -72 -15 -105 -5
-33 -14 -96 -20 -140 -13 -93 -19 -130 -25 -165 -5 -30 -12 -77 -20 -145 -4
-27 -8 -57 -10 -65 -2 -8 -7 -35 -10 -60 -6 -47 -16 -115 -20 -140 -2 -8 -6
-37 -9 -65 -7 -51 -33 -229 -41 -275 -2 -14 -7 -45 -10 -70 -3 -25 -10 -72
-15 -105 -5 -33 -12 -80 -15 -105 -3 -25 -8 -52 -10 -60 -2 -8 -7 -39 -10 -69
-4 -30 -8 -61 -10 -70 -2 -14 -10 -67 -20 -141 -6 -45 -36 -244 -40 -271 -3
-14 -7 -43 -10 -65 -4 -37 -14 -100 -20 -135 -2 -9 -6 -40 -10 -69 -4 -29 -8
-62 -11 -73 -2 -11 -8 -57 -14 -101 -13 -94 -18 -131 -25 -166 -3 -14 -7 -45
-10 -70 -9 -73 -16 -124 -20 -140 -2 -8 -7 -40 -10 -70 -3 -30 -8 -62 -10 -70
-2 -8 -7 -39 -10 -69 -4 -30 -9 -63 -11 -75 -3 -17 -30 -194 -49 -326 -2 -14
-6 -45 -10 -70 -4 -25 -8 -56 -10 -70 -2 -14 -6 -43 -10 -65 -3 -22 -7 -55
-10 -73 -2 -18 -6 -45 -9 -60 -3 -15 -8 -47 -11 -72 -4 -25 -8 -56 -10 -70 -5
-31 -16 -108 -20 -135 -13 -93 -26 -186 -30 -206 -3 -13 -7 -42 -10 -64 -2
-22 -18 -131 -35 -243 -16 -111 -32 -221 -35 -245 -3 -23 -10 -71 -16 -107
-15 -98 -17 -108 -29 -195 -7 -44 -14 -87 -15 -96 -2 -9 -6 -40 -10 -70 -3
-30 -8 -61 -10 -69 -2 -8 -7 -40 -10 -70 -3 -30 -8 -62 -10 -70 -2 -8 -7 -40
-10 -70 -3 -30 -8 -62 -10 -70 -2 -8 -6 -33 -9 -55 -3 -22 -8 -60 -11 -85 -3
-25 -12 -85 -20 -135 -8 -49 -17 -108 -20 -130 -3 -22 -10 -67 -15 -100 -5
-33 -12 -82 -15 -110 -4 -27 -8 -61 -11 -75 -5 -32 -11 -66 -24 -165 -14 -99
-19 -133 -25 -165 -2 -14 -7 -45 -10 -70 -3 -25 -10 -72 -15 -105 -5 -33 -12
-78 -15 -100 -3 -22 -8 -55 -11 -73 -3 -17 -7 -49 -10 -69 -2 -20 -6 -49 -9
-64 -3 -15 -7 -44 -10 -65 -12 -93 -14 -107 -19 -132 -3 -15 -8 -52 -12 -82
-3 -30 -7 -57 -9 -60 -2 -3 -7 -35 -10 -70 -4 -36 -8 -67 -10 -70 -2 -3 -6
-30 -10 -60 -3 -30 -10 -80 -15 -110 -5 -30 -12 -77 -15 -105 -4 -27 -8 -57
-10 -65 -2 -8 -7 -40 -10 -70 -3 -30 -8 -62 -10 -70 -2 -8 -6 -33 -9 -55 -14
-108 -17 -131 -21 -145 -2 -8 -7 -37 -10 -65 -3 -27 -10 -75 -15 -105 -5 -30
-12 -75 -15 -100 -3 -25 -8 -56 -10 -70 -3 -14 -7 -45 -10 -70 -3 -25 -7 -56
-10 -70 -2 -14 -7 -45 -10 -70 -3 -25 -8 -52 -10 -60 -2 -8 -7 -39 -10 -69 -4
-30 -8 -62 -10 -71 -2 -9 -6 -41 -10 -70 -4 -29 -8 -61 -10 -71 -2 -9 -6 -39
-10 -66 -9 -65 -12 -87 -24 -163 -6 -36 -13 -83 -16 -105 -2 -22 -7 -49 -9
-61 -2 -12 -7 -45 -11 -75 -3 -30 -8 -67 -11 -82 -7 -34 -11 -64 -19 -136 -4
-30 -8 -57 -10 -60 -2 -3 -6 -31 -10 -61 -3 -30 -10 -80 -15 -110 -5 -30 -12
-77 -16 -105 -3 -27 -8 -57 -9 -65 -2 -9 -6 -41 -10 -73 -8 -66 -12 -64 107
-47 36 5 88 12 113 15 26 2 84 9 129 15 103 14 139 18 201 25 28 3 84 10 125
15 41 6 95 12 120 15 25 3 56 7 70 9 14 3 52 8 85 11 33 3 71 8 85 10 14 2 50
7 80 10 30 3 66 7 80 10 14 2 104 13 200 25 96 12 191 23 210 25 19 3 59 7 88
11 29 3 63 7 75 10 12 2 51 6 87 9 36 4 72 8 80 10 8 2 38 6 65 10 28 3 66 8
85 10 19 3 58 7 85 10 28 3 82 10 120 15 39 6 95 12 125 15 30 3 66 7 80 9 14
3 50 8 81 11 31 3 65 7 75 9 11 2 51 7 89 11 39 4 79 9 90 11 11 2 40 6 65 9
25 3 61 7 80 10 19 2 60 7 90 10 30 3 66 8 80 10 23 4 100 14 160 20 14 2 48
6 75 9 86 11 125 16 295 37 164 19 222 27 270 34 14 2 52 6 85 10 33 3 71 8
85 10 14 2 48 6 75 9 66 8 134 17 165 21 14 2 50 7 80 11 30 3 66 7 80 9 14 2
54 7 90 10 36 4 76 8 90 11 14 2 49 7 78 10 l53 6 -37 -98 c-56 -153 -80 -217
-93 -247 -6 -16 -11 -33 -11 -38 0 -5 -4 -17 -9 -27 -10 -18 -40 -98 -109
-287 -61 -167 -229 -618 -268 -720 -19 -49 -34 -94 -34 -98 0 -5 -7 -25 -16
-45 -24 -55 -22 -51 -157 -417 -69 -187 -162 -437 -206 -555 -44 -118 -86
-233 -94 -255 -8 -22 -63 -170 -122 -330 -132 -356 -158 -425 -200 -540 -18
-49 -38 -101 -43 -115 -6 -14 -52 -137 -103 -275 -50 -137 -117 -320 -149
-405 -32 -85 -86 -231 -120 -325 -34 -93 -66 -179 -71 -190 -8 -20 -316 -849
-369 -995 -15 -41 -71 -192 -124 -335 -54 -143 -131 -352 -173 -465 -41 -113
-86 -234 -100 -270 -13 -36 -42 -112 -63 -170 -42 -117 -194 -526 -300 -810
-41 -110 -61 -175 -50 -160 11 14 106 140 212 280 106 140 198 262 205 270 7
8 46 60 87 115 42 55 84 111 94 125 33 43 141 186 352 465 112 149 252 333
310 410 137 181 420 555 540 715 108 143 102 135 133 175 20 25 313 414 514
680 29 39 56 75 61 80 11 13 118 156 164 218 20 27 48 64 61 81 14 17 40 51
59 76 19 25 117 155 218 289 102 134 229 303 283 375 54 72 103 138 110 146 7
9 145 191 307 405 162 215 355 469 428 565 239 316 477 631 642 850 89 118
169 224 178 235 9 11 64 83 121 160 58 77 109 145 113 150 5 6 42 55 84 110
41 55 80 107 87 115 7 9 39 51 72 95 32 44 63 85 68 90 4 6 62 82 128 170 66
88 125 167 132 175 7 8 95 125 196 260 102 135 187 247 190 250 3 3 107 140
231 305 123 165 227 302 230 305 3 3 51 66 107 140 108 144 341 454 641 850
349 460 458 605 582 770 152 201 135 179 166 218 15 18 25 34 23 36 -2 2 -42
0 -89 -4 -47 -5 -119 -11 -160 -15 -41 -3 -95 -7 -120 -10 -25 -2 -76 -7 -115
-10 -66 -5 -112 -9 -230 -20 -27 -2 -86 -7 -130 -10 -44 -3 -98 -8 -120 -10
-51 -5 -144 -14 -220 -20 -74 -6 -164 -14 -230 -19 -27 -3 -84 -7 -125 -10
-41 -4 -95 -8 -120 -11 -25 -3 -74 -7 -110 -10 -67 -6 -148 -12 -235 -20 -146
-13 -176 -15 -240 -20 -38 -3 -86 -7 -105 -9 -19 -2 -71 -7 -115 -10 -44 -4
-100 -9 -125 -11 -25 -2 -76 -7 -115 -10 -64 -4 -109 -8 -235 -20 -25 -2 -81
-7 -125 -11 -85 -6 -108 -8 -225 -19 -41 -3 -95 -8 -120 -10 -133 -11 -200
-16 -242 -21 -27 -2 -76 -7 -110 -9 -35 -3 -83 -7 -108 -9 -42 -5 -73 -8 -250
-21 -36 -3 -85 -7 -110 -10 -58 -5 -184 -16 -235 -20 -109 -9 -184 -16 -220
-19 -22 -2 -80 -7 -130 -11 -49 -3 -101 -8 -115 -10 -14 -2 -63 -7 -110 -10
-47 -3 -101 -8 -120 -10 -19 -2 -75 -6 -125 -10 -49 -3 -101 -8 -115 -10 -14
-2 -61 -6 -105 -10 -98 -7 -173 -14 -243 -21 l-53 -6 24 39 c13 21 26 43 28
48 3 9 98 170 214 365 17 30 95 163 173 295 77 132 238 407 357 610 119 204
230 394 246 423 16 28 40 70 54 93 15 22 34 55 44 72 37 64 89 154 140 240 28
48 74 126 102 175 29 48 60 101 70 117 10 17 23 39 29 50 5 11 21 38 35 60 14
22 28 46 32 54 3 8 49 86 101 175 52 89 120 204 150 256 30 52 66 112 78 132
13 21 24 40 24 42 0 2 23 41 50 85 28 44 50 83 50 86 0 3 17 34 39 68 21 34
188 319 371 632 183 314 367 629 410 700 42 72 106 179 141 240 35 60 69 119
76 130 7 11 18 31 25 45 6 14 20 36 29 50 14 22 453 770 484 825 6 11 26 46
45 78 54 91 218 371 271 463 33 57 408 696 420 714 11 19 235 403 262 450 11
19 87 150 169 290 83 140 174 296 203 345 81 139 215 367 296 505 40 69 79
134 85 145 6 11 21 36 32 55 12 19 25 42 29 50 4 8 30 53 58 100 28 47 54 92
58 100 4 8 16 29 27 45 11 17 29 48 41 69 11 22 49 87 84 145 34 58 72 122 82
141 11 19 30 52 43 73 12 20 18 38 13 38 -28 5 -8076 3 -8083 -1z"/>
</g>
</svg>
